<svg width="224" height="32" viewBox="0 0 224 32" fill="none" xmlns="http://www.w3.org/2000/svg">
<path d="M16 0L21.3227 8.67398L31.2169 11.0557L24.6123 18.7983L25.4046 28.9443L16 25.0555L6.59544 28.9443L7.38775 18.7983L0.783095 11.0557L10.6773 8.67398L16 0Z" fill="#FFC833"/>
<path d="M64 0L69.3227 8.67398L79.2169 11.0557L72.6123 18.7983L73.4046 28.9443L64 25.0555L54.5954 28.9443L55.3877 18.7983L48.7831 11.0557L58.6773 8.67398L64 0Z" fill="#FFC833"/>
<path d="M112 0L117.323 8.67398L127.217 11.0557L120.612 18.7983L121.405 28.9443L112 25.0555L102.595 28.9443L103.388 18.7983L96.7831 11.0557L106.677 8.67398L112 0Z" fill="#FFC833"/>
<path d="M160 0L165.323 8.67398L175.217 11.0557L168.612 18.7983L169.405 28.9443L160 25.0555L150.595 28.9443L151.388 18.7983L144.783 11.0557L154.677 8.67398L160 0Z" fill="#FFC833"/>
<path d="M208 0L213.323 8.67398L223.217 11.0557L216.612 18.7983L217.405 28.9443L208 25.0555L198.595 28.9443L199.388 18.7983L192.783 11.0557L202.677 8.67398L208 0Z" fill="#EBF0FF"/>
</svg>
